<svg xmlns="http://www.w3.org/2000/svg" width="55" height="54" viewBox="0 0 55 54"><g><g><path d="M55 15.057v6.913c0 1.606-1.316 2.913-2.934 2.913h-1.344v26.204c0 1.606-1.316 2.913-2.934 2.913H7.212c-1.618 0-2.934-1.307-2.934-2.913V24.882H2.934C1.316 24.883 0 23.576 0 21.97v-6.913c0-1.606 1.316-2.913 2.934-2.913h7.63a7.46 7.46 0 0 1-2.008-5.092s.001-.3.004-.385c.082-2.423 1.413-4.583 3.56-5.78a7.108 7.108 0 0 1 6.979.001l3.47 1.945A12.052 12.052 0 0 1 27.5 8.042a12.052 12.052 0 0 1 4.932-5.21l3.47-1.944a7.106 7.106 0 0 1 6.978 0c2.147 1.196 3.478 3.356 3.56 5.779.003.085.004.385.004.385a7.459 7.459 0 0 1-2.008 5.092h7.63c1.618 0 2.934 1.307 2.934 2.913zm-26.208-2.913H38.87c2.829 0 5.13-2.285 5.13-5.092 0 0-.001-.245-.003-.303-.053-1.568-.918-2.968-2.314-3.746a4.664 4.664 0 0 0-4.58-.002l-3.47 1.944a9.602 9.602 0 0 0-4.84 7.199zM11 7.052c0 2.807 2.301 5.092 5.13 5.092h10.078a9.602 9.602 0 0 0-4.841-7.199l-3.47-1.944a4.666 4.666 0 0 0-4.58.002c-1.396.778-2.26 2.178-2.314 3.745-.002.059-.003.304-.003.304zm11 21.522v-3.691H6.722v26.204c0 .269.22.486.49.486H22V31h-5.032a1.218 1.218 0 0 1-1.222-1.214c0-.67.547-1.212 1.222-1.212zm0-14.004H2.934c-.27 0-.49.219-.49.487v6.913c0 .268.22.486.49.486H22zm8.555 0h-6.11v37.003h6.11zm17.723 36.517V24.883H33v3.69h4.657c.675 0 1.222.544 1.222 1.213 0 .67-.547 1.214-1.222 1.214H33v20.573h14.788c.27 0 .49-.217.49-.486zm4.278-29.117v-6.913a.489.489 0 0 0-.49-.487H33v7.886h19.066c.27 0 .49-.218.49-.486zM42.24 29.786c0-.67.548-1.213 1.223-1.213h.122c.675 0 1.222.544 1.222 1.213 0 .67-.547 1.214-1.222 1.214h-.122a1.218 1.218 0 0 1-1.223-1.214zm-32.422 0c0-.67.548-1.213 1.223-1.213h.122c.675 0 1.222.544 1.222 1.213 0 .67-.547 1.214-1.222 1.214h-.122a1.218 1.218 0 0 1-1.223-1.214z"/><path fill="#f50049" d="M55 15.057v6.913c0 1.606-1.316 2.913-2.934 2.913h-1.344v26.204c0 1.606-1.316 2.913-2.934 2.913H7.212c-1.618 0-2.934-1.307-2.934-2.913V24.882H2.934C1.316 24.883 0 23.576 0 21.97v-6.913c0-1.606 1.316-2.913 2.934-2.913h7.63a7.46 7.46 0 0 1-2.008-5.092s.001-.3.004-.385c.082-2.423 1.413-4.583 3.56-5.78a7.108 7.108 0 0 1 6.979.001l3.47 1.945A12.052 12.052 0 0 1 27.5 8.042a12.052 12.052 0 0 1 4.932-5.21l3.47-1.944a7.106 7.106 0 0 1 6.978 0c2.147 1.196 3.478 3.356 3.56 5.779.003.085.004.385.004.385a7.459 7.459 0 0 1-2.008 5.092h7.63c1.618 0 2.934 1.307 2.934 2.913zm-26.208-2.913H38.87c2.829 0 5.13-2.285 5.13-5.092 0 0-.001-.245-.003-.303-.053-1.568-.918-2.968-2.314-3.746a4.664 4.664 0 0 0-4.58-.002l-3.47 1.944a9.602 9.602 0 0 0-4.84 7.199zM11 7.052c0 2.807 2.301 5.092 5.13 5.092h10.078a9.602 9.602 0 0 0-4.841-7.199l-3.47-1.944a4.666 4.666 0 0 0-4.58.002c-1.396.778-2.26 2.178-2.314 3.745-.002.059-.003.304-.003.304zm11 21.522v-3.691H6.722v26.204c0 .269.22.486.49.486H22V31h-5.032a1.218 1.218 0 0 1-1.222-1.214c0-.67.547-1.212 1.222-1.212zm0-14.004H2.934c-.27 0-.49.219-.49.487v6.913c0 .268.22.486.49.486H22zm8.555 0h-6.11v37.003h6.11zm17.723 36.517V24.883H33v3.69h4.657c.675 0 1.222.544 1.222 1.213 0 .67-.547 1.214-1.222 1.214H33v20.573h14.788c.27 0 .49-.217.49-.486zm4.278-29.117v-6.913a.489.489 0 0 0-.49-.487H33v7.886h19.066c.27 0 .49-.218.49-.486zM42.24 29.786c0-.67.548-1.213 1.223-1.213h.122c.675 0 1.222.544 1.222 1.213 0 .67-.547 1.214-1.222 1.214h-.122a1.218 1.218 0 0 1-1.223-1.214zm-32.422 0c0-.67.548-1.213 1.223-1.213h.122c.675 0 1.222.544 1.222 1.213 0 .67-.547 1.214-1.222 1.214h-.122a1.218 1.218 0 0 1-1.223-1.214z"/></g></g></svg>